<svg xmlns="http://www.w3.org/2000/svg" xmlns:xlink="http://www.w3.org/1999/xlink" width="500" zoomAndPan="magnify" viewBox="0 0 375 374.999991" height="500" preserveAspectRatio="xMidYMid meet" version="1.0"><defs><clipPath id="08bd29e0e0"><path d="M 25.226562 0 L 349.976562 0 L 349.976562 375 L 25.226562 375 Z M 25.226562 0 " clip-rule="nonzero"/></clipPath></defs><g clip-path="url(#08bd29e0e0)"><path fill="#000000" d="M 350.070312 24.253906 L 212.96875 24.253906 L 212.96875 0.0117188 L 162.3125 0.0117188 L 162.3125 24.253906 L 25.226562 24.253906 L 25.226562 69.253906 L 43.839844 69.253906 L 64.925781 374.988281 L 310.390625 374.988281 L 331.460938 69.195312 L 350.070312 69.195312 Z M 179.214844 16.886719 L 196.101562 16.886719 L 196.101562 24.253906 L 179.214844 24.253906 Z M 294.613281 358.113281 L 80.742188 358.113281 L 60.761719 69.195312 L 314.539062 69.195312 Z M 333.1875 52.320312 L 42.113281 52.320312 L 42.113281 41.074219 L 333.1875 41.074219 Z M 333.1875 52.320312 " fill-opacity="1" fill-rule="nonzero"/></g><path fill="#000000" d="M 179.214844 86.070312 L 196.101562 86.070312 L 196.101562 329.972656 L 179.214844 329.972656 Z M 179.214844 86.070312 " fill-opacity="1" fill-rule="nonzero"/><path fill="#000000" d="M 238.042969 329.484375 L 252.117188 85.578125 L 268.972656 86.546875 L 254.902344 330.457031 Z M 238.042969 329.484375 " fill-opacity="1" fill-rule="nonzero"/><path fill="#000000" d="M 105.164062 86.550781 L 122.023438 85.578125 L 136.09375 329.488281 L 119.238281 330.457031 Z M 105.164062 86.550781 " fill-opacity="1" fill-rule="nonzero"/></svg>