<svg xmlns="http://www.w3.org/2000/svg" xmlns:xlink="http://www.w3.org/1999/xlink" width="40" zoomAndPan="magnify" viewBox="0 0 30 30.000001" height="40" preserveAspectRatio="xMidYMid meet" version="1.0"><defs><clipPath id="55d0829adc"><path d="M 0.484375 0 L 29.515625 0 L 29.515625 29.03125 L 0.484375 29.03125 Z M 0.484375 0 " clip-rule="nonzero"/></clipPath><clipPath id="66954c2eef"><path d="M 0.484375 0 L 29.515625 0 L 29.515625 29 L 0.484375 29 Z M 0.484375 0 " clip-rule="nonzero"/></clipPath><clipPath id="1557cde626"><path d="M 0.484375 0 L 29.515625 0 L 29.515625 29.03125 L 0.484375 29.03125 Z M 0.484375 0 " clip-rule="nonzero"/></clipPath></defs><g clip-path="url(#55d0829adc)"><path stroke-linecap="round" transform="matrix(1.356878, 0, 0, 1.356878, 0.48387, 0.00000193548)" fill="none" stroke-linejoin="round" d="M 288.789445 147.080503 C 288.789445 149.397978 288.731868 151.718332 288.619593 154.032929 C 288.504438 156.350404 288.334586 158.662121 288.107157 160.97096 C 287.879728 163.27692 287.5976 165.580001 287.255017 167.874445 C 286.915313 170.16601 286.52091 172.451818 286.066052 174.726111 C 285.614072 177.000403 285.107394 179.26318 284.543139 181.511563 C 283.978884 183.762824 283.359931 185.996813 282.689159 188.216407 C 282.015508 190.436001 281.287159 192.638322 280.50699 194.820492 C 279.723943 197.00554 278.889076 199.167557 278.00239 201.309422 C 277.115703 203.451287 276.177198 205.573001 275.183994 207.668804 C 274.193669 209.764608 273.151525 211.837381 272.057562 213.881365 C 270.963599 215.928228 269.820695 217.943424 268.62885 219.93271 C 267.437006 221.921996 266.196221 223.882494 264.906496 225.808445 C 263.619649 227.737275 262.283862 229.634438 260.902014 231.497055 C 259.520165 233.359672 258.095134 235.187742 256.624041 236.981266 C 255.152948 238.771912 253.638672 240.528011 252.081214 242.246685 C 250.523755 243.965359 248.923114 245.64373 247.285048 247.284675 C 245.644103 248.922741 243.965733 250.523382 242.247058 252.080841 C 240.528384 253.638299 238.772285 255.152575 236.978761 256.623668 C 235.188115 258.094761 233.360045 259.519792 231.497428 260.901641 C 229.634812 262.283489 227.737649 263.619276 225.808818 264.906122 C 223.882867 266.195848 221.922369 267.436633 219.933083 268.628477 C 217.943797 269.820321 215.925722 270.963225 213.881738 272.057189 C 211.834875 273.151152 209.764981 274.193296 207.669177 275.183621 C 205.573374 276.176825 203.45166 277.11533 201.309795 278.002016 C 199.16793 278.891581 197.003034 279.723569 194.820865 280.506617 C 192.635817 281.286785 190.436375 282.015135 188.21678 282.688786 C 185.997186 283.362437 183.763198 283.978511 181.511936 284.542766 C 179.263553 285.107021 177.000776 285.613699 174.726484 286.065678 C 172.452191 286.520537 170.166384 286.914939 167.871939 287.257523 C 165.580374 287.597227 163.277293 287.879355 160.971333 288.106784 C 158.662495 288.334213 156.350777 288.506944 154.033302 288.619219 C 151.715827 288.734373 149.398352 288.789071 147.080876 288.789071 C 144.760522 288.789071 142.443047 288.734373 140.125572 288.619219 C 137.810976 288.506944 135.499258 288.334213 133.19042 288.106784 C 130.881581 287.879355 128.581379 287.597227 126.286935 287.257523 C 123.99249 286.914939 121.709561 286.520537 119.43239 286.065678 C 117.158098 285.613699 114.8982 285.107021 112.646938 284.542766 C 110.398555 283.978511 108.161688 283.362437 105.944972 282.688786 C 103.725378 282.015135 101.523057 281.286785 99.338009 280.506617 C 97.15584 279.723569 94.993823 278.891581 92.849079 278.002016 C 90.707213 277.11533 88.588379 276.176825 86.492575 275.183621 C 84.393893 274.193296 82.323999 273.151152 80.277136 272.057189 C 78.233151 270.963225 76.215077 269.820321 74.225791 268.628477 C 72.236505 267.436633 70.278886 266.195848 68.350056 264.906122 C 66.421225 263.619276 64.526941 262.283489 62.664325 260.901641 C 60.801708 259.519792 58.973637 258.094761 57.180113 256.623668 C 55.386589 255.152575 53.63049 253.638299 51.914694 252.080841 C 50.19602 250.523382 48.514771 248.922741 46.876705 247.284675 C 45.23576 245.64373 43.637997 243.965359 42.080539 242.246685 C 40.52308 240.528011 39.008805 238.771912 37.537712 236.981266 C 36.066619 235.187742 34.638709 233.359672 33.25686 231.497055 C 31.875012 229.634438 30.542104 227.737275 29.252378 225.808445 C 27.962653 223.882494 26.724747 221.921996 25.530024 219.93271 C 24.338179 217.943424 23.195275 215.928228 22.104191 213.881365 C 21.010227 211.837381 19.968083 209.764608 18.97488 207.668804 C 17.984555 205.573001 17.043171 203.451287 16.156484 201.309422 C 15.269798 199.167557 14.434931 197.00554 13.654763 194.820492 C 12.871715 192.638322 12.146245 190.436001 11.472594 188.216407 C 10.798942 185.996813 10.179989 183.762824 9.615735 181.511563 C 9.054359 179.26318 8.544802 177.000403 8.092822 174.726111 C 7.640843 172.451818 7.243561 170.16601 6.903857 167.874445 C 6.564152 165.580001 6.279146 163.27692 6.051717 160.97096 C 5.824288 158.662121 5.654435 156.350404 5.539281 154.032929 C 5.427006 151.718332 5.369429 149.397978 5.369429 147.080503 C 5.369429 144.760149 5.427006 142.442674 5.539281 140.125199 C 5.654435 137.810602 5.824288 135.498885 6.051717 133.190046 C 6.279146 130.881208 6.564152 128.581006 6.903857 126.286561 C 7.243561 123.992117 7.640843 121.709188 8.092822 119.434896 C 8.544802 117.157724 9.054359 114.897826 9.615735 112.646565 C 10.179989 110.398182 10.798942 108.164193 11.472594 105.944599 C 12.146245 103.725005 12.871715 101.522684 13.654763 99.340515 C 14.434931 97.155467 15.269798 94.99345 16.156484 92.848705 C 17.043171 90.70684 17.984555 88.588006 18.97488 86.492202 C 19.968083 84.39352 21.010227 82.323626 22.104191 80.279641 C 23.195275 78.232778 24.338179 76.214704 25.530024 74.225417 C 26.724747 72.236131 27.962653 70.278513 29.252378 68.349682 C 30.542104 66.420852 31.875012 64.526568 33.25686 62.663951 C 34.638709 60.801335 36.066619 58.973264 37.537712 57.17974 C 39.008805 55.386216 40.52308 53.632995 42.080539 51.914321 C 43.637997 50.195647 45.23576 48.514398 46.876705 46.876332 C 48.514771 45.235386 50.19602 43.637624 51.914694 42.080166 C 53.63049 40.522707 55.386589 39.008431 57.180113 37.537339 C 58.973637 36.066246 60.801708 34.638335 62.664325 33.256487 C 64.526941 31.874638 66.421225 30.54173 68.350056 29.252005 C 70.278886 27.965159 72.236505 26.724374 74.225791 25.532529 C 76.215077 24.337806 78.233151 23.194902 80.277136 22.103818 C 82.323999 21.009854 84.393893 19.96771 86.492575 18.974506 C 88.588379 17.984182 90.707213 17.045676 92.849079 16.156111 C 94.993823 15.269425 97.15584 14.434558 99.338009 13.65439 C 101.523057 12.871342 103.725378 12.145872 105.944972 11.47222 C 108.161688 10.798569 110.398555 10.179616 112.646938 9.61824 C 114.8982 9.053985 117.158098 8.544429 119.43239 8.092449 C 121.709561 7.640469 123.99249 7.243188 126.286935 6.903484 C 128.581379 6.563779 130.881581 6.278773 133.19042 6.051344 C 135.499258 5.823914 137.810976 5.654062 140.125572 5.541787 C 142.443047 5.426633 144.760522 5.369056 147.080876 5.369056 C 149.398352 5.369056 151.715827 5.426633 154.033302 5.541787 C 156.350777 5.654062 158.662495 5.823914 160.971333 6.051344 C 163.277293 6.278773 165.580374 6.563779 167.871939 6.903484 C 170.166384 7.243188 172.452191 7.640469 174.726484 8.092449 C 177.000776 8.544429 179.263553 9.053985 181.511936 9.61824 C 183.763198 10.179616 185.997186 10.798569 188.21678 11.47222 C 190.436375 12.145872 192.635817 12.871342 194.820865 13.65439 C 197.003034 14.434558 199.16793 15.269425 201.309795 16.156111 C 203.45166 17.045676 205.573374 17.984182 207.669177 18.974506 C 209.764981 19.96771 211.834875 21.009854 213.881738 22.103818 C 215.925722 23.194902 217.943797 24.337806 219.933083 25.532529 C 221.922369 26.724374 223.882867 27.965159 225.808818 29.252005 C 227.737649 30.54173 229.634812 31.874638 231.497428 33.256487 C 233.360045 34.638335 235.188115 36.066246 236.978761 37.537339 C 238.772285 39.008431 240.528384 40.522707 242.247058 42.080166 C 243.965733 43.637624 245.644103 45.235386 247.285048 46.876332 C 248.923114 48.514398 250.523755 50.195647 252.081214 51.914321 C 253.638672 53.632995 255.152948 55.386216 256.624041 57.17974 C 258.095134 58.973264 259.520165 60.801335 260.902014 62.663951 C 262.283862 64.526568 263.619649 66.420852 264.906496 68.349682 C 266.196221 70.278513 267.437006 72.236131 268.62885 74.225417 C 269.820695 76.214704 270.963599 78.232778 272.057562 80.279641 C 273.151525 82.323626 274.193669 84.39352 275.183994 86.492202 C 276.177198 88.588006 277.115703 90.70684 278.00239 92.848705 C 278.889076 94.99345 279.723943 97.155467 280.50699 99.340515 C 281.287159 101.522684 282.015508 103.725005 282.689159 105.944599 C 283.359931 108.164193 283.978884 110.398182 284.543139 112.646565 C 285.107394 114.897826 285.614072 117.157724 286.066052 119.434896 C 286.52091 121.709188 286.915313 123.992117 287.255017 126.286561 C 287.5976 128.581006 287.879728 130.881208 288.107157 133.190046 C 288.334586 135.498885 288.504438 137.810602 288.619593 140.125199 C 288.731868 142.442674 288.789445 144.760149 288.789445 147.080503 Z M 288.789445 147.080503 " stroke="#000000" stroke-width="10.742" stroke-opacity="1" stroke-miterlimit="10"/></g><g clip-path="url(#66954c2eef)"><path fill="#7d5a50" d="M 28.769531 10.214844 L 19.304688 10.214844 L 19.304688 0.746094 C 19.304688 0.425781 19.050781 0.171875 18.730469 0.171875 L 11.269531 0.171875 C 10.949219 0.171875 10.695312 0.425781 10.695312 0.746094 L 10.695312 10.214844 L 1.230469 10.214844 C 0.910156 10.214844 0.65625 10.464844 0.65625 10.785156 L 0.65625 18.246094 C 0.65625 18.566406 0.910156 18.820312 1.230469 18.820312 L 10.695312 18.820312 L 10.695312 28.285156 C 10.695312 28.609375 10.949219 28.859375 11.269531 28.859375 L 18.730469 28.859375 C 19.050781 28.859375 19.304688 28.609375 19.304688 28.285156 L 19.304688 18.820312 L 28.769531 18.820312 C 29.089844 18.820312 29.34375 18.566406 29.34375 18.246094 L 29.34375 10.785156 C 29.34375 10.464844 29.089844 10.214844 28.769531 10.214844 Z M 28.769531 10.214844 " fill-opacity="1" fill-rule="nonzero"/></g><g clip-path="url(#1557cde626)"><path fill="#000000" d="M 18.730469 29.03125 L 11.269531 29.03125 C 10.859375 29.03125 10.523438 28.699219 10.523438 28.285156 L 10.523438 18.992188 L 1.230469 18.992188 C 0.816406 18.992188 0.484375 18.660156 0.484375 18.246094 L 0.484375 10.785156 C 0.484375 10.375 0.816406 10.039062 1.230469 10.039062 L 10.523438 10.039062 L 10.523438 0.746094 C 10.523438 0.332031 10.859375 0 11.269531 0 L 18.730469 0 C 19.140625 0 19.476562 0.332031 19.476562 0.746094 L 19.476562 10.039062 L 28.769531 10.039062 C 29.183594 10.039062 29.515625 10.375 29.515625 10.785156 L 29.515625 18.246094 C 29.515625 18.660156 29.183594 18.992188 28.769531 18.992188 L 19.476562 18.992188 L 19.476562 28.285156 C 19.476562 28.699219 19.140625 29.03125 18.730469 29.03125 Z M 1.230469 10.386719 C 1.011719 10.386719 0.828125 10.570312 0.828125 10.785156 L 0.828125 18.246094 C 0.828125 18.464844 1.011719 18.648438 1.230469 18.648438 L 10.695312 18.648438 C 10.789062 18.648438 10.867188 18.726562 10.867188 18.820312 L 10.867188 28.285156 C 10.867188 28.503906 11.050781 28.6875 11.269531 28.6875 L 18.730469 28.6875 C 18.949219 28.6875 19.132812 28.503906 19.132812 28.285156 L 19.132812 18.820312 C 19.132812 18.726562 19.210938 18.648438 19.304688 18.648438 L 28.769531 18.648438 C 28.988281 18.648438 29.171875 18.464844 29.171875 18.246094 L 29.171875 10.785156 C 29.171875 10.570312 28.988281 10.386719 28.769531 10.386719 L 19.304688 10.386719 C 19.210938 10.386719 19.132812 10.304688 19.132812 10.214844 L 19.132812 0.746094 C 19.132812 0.527344 18.949219 0.34375 18.730469 0.34375 L 11.269531 0.34375 C 11.050781 0.34375 10.867188 0.527344 10.867188 0.746094 L 10.867188 10.214844 C 10.867188 10.304688 10.789062 10.386719 10.695312 10.386719 Z M 1.230469 10.386719 " fill-opacity="1" fill-rule="nonzero"/></g></svg>