<svg xmlns="http://www.w3.org/2000/svg" xmlns:xlink="http://www.w3.org/1999/xlink" width="450" zoomAndPan="magnify" viewBox="0 0 337.5 225" height="300" preserveAspectRatio="xMidYMid meet" version="1.0"><defs><clipPath id="097acc4aab"><path d="M 98.128906 31.066406 L 239.128906 31.066406 L 239.128906 194.566406 L 98.128906 194.566406 Z M 98.128906 31.066406 " clip-rule="nonzero"/></clipPath></defs><g clip-path="url(#097acc4aab)"><path fill="#000000" d="M 239.171875 41.644531 L 179.640625 41.644531 L 179.640625 31.074219 L 157.648438 31.074219 L 157.648438 41.644531 L 98.128906 41.644531 L 98.128906 61.261719 L 106.210938 61.261719 L 115.367188 194.558594 L 221.941406 194.558594 L 231.089844 61.238281 L 239.171875 61.238281 Z M 164.988281 38.429688 L 172.320312 38.429688 L 172.320312 41.644531 L 164.988281 41.644531 Z M 215.089844 187.203125 L 122.230469 187.203125 L 113.558594 61.238281 L 223.742188 61.238281 Z M 231.839844 53.878906 L 105.460938 53.878906 L 105.460938 48.976562 L 231.839844 48.976562 Z M 231.839844 53.878906 " fill-opacity="1" fill-rule="nonzero"/></g><path fill="#000000" d="M 164.988281 68.59375 L 172.320312 68.59375 L 172.320312 174.933594 L 164.988281 174.933594 Z M 164.988281 68.59375 " fill-opacity="1" fill-rule="nonzero"/><path fill="#000000" d="M 190.53125 174.722656 L 196.640625 68.378906 L 203.960938 68.800781 L 197.847656 175.144531 Z M 190.53125 174.722656 " fill-opacity="1" fill-rule="nonzero"/><path fill="#000000" d="M 132.835938 68.804688 L 140.15625 68.378906 L 146.265625 174.722656 L 138.945312 175.144531 Z M 132.835938 68.804688 " fill-opacity="1" fill-rule="nonzero"/></svg>